<svg width="25" height="25" viewBox="0 0 25 25" fill="none" xmlns="http://www.w3.org/2000/svg">
<circle cx="12.5" cy="12.5" r="12.5" fill="#F9B123"/>
<path d="M12.7602 9.24672V12.19L15.1079 13.6572C15.2262 13.7312 15.3114 13.8511 15.3448 13.9905C15.3782 14.13 15.357 14.2775 15.286 14.4007C15.215 14.5239 15.0999 14.6126 14.9661 14.6474C14.8322 14.6822 14.6906 14.6602 14.5723 14.5862L11.9724 12.9612C11.8955 12.913 11.8318 12.8449 11.7876 12.7635C11.7434 12.6822 11.7202 12.5902 11.7202 12.4967V9.24672C11.7202 9.10306 11.775 8.96528 11.8725 8.8637C11.97 8.76212 12.1023 8.70505 12.2402 8.70505C12.3781 8.70505 12.5104 8.76212 12.6079 8.8637C12.7054 8.96528 12.7602 9.10306 12.7602 9.24672ZM18.48 7.62172C18.3421 7.62172 18.2098 7.67878 18.1123 7.78037C18.0148 7.88195 17.96 8.01972 17.96 8.16338V9.38213C17.5473 8.8838 17.1261 8.40375 16.6523 7.90406C15.7851 7.00063 14.6816 6.38344 13.4796 6.1296C12.2776 5.87576 11.0305 5.99653 9.89402 6.47681C8.75756 6.9571 7.78216 7.77561 7.08971 8.83007C6.39727 9.88452 6.01847 11.1282 6.00066 12.4056C5.98285 13.683 6.32681 14.9376 6.98957 16.0126C7.65233 17.0875 8.60449 17.9352 9.72709 18.4497C10.8497 18.9641 12.0929 19.1226 13.3015 18.9052C14.51 18.6879 15.6303 18.1043 16.5223 17.2275C16.572 17.1786 16.6119 17.12 16.6398 17.055C16.6678 16.99 16.6831 16.9199 16.6851 16.8488C16.687 16.7776 16.6754 16.7067 16.6511 16.6402C16.6267 16.5737 16.59 16.5128 16.5431 16.461C16.4961 16.4093 16.4399 16.3677 16.3775 16.3386C16.3151 16.3095 16.2478 16.2935 16.1795 16.2915C16.1112 16.2894 16.0431 16.3015 15.9793 16.3269C15.9154 16.3522 15.857 16.3905 15.8073 16.4394C15.0637 17.1693 14.1302 17.6549 13.1233 17.8355C12.1165 18.0161 11.0808 17.8837 10.1457 17.4548C9.21063 17.0259 8.41755 16.3196 7.86552 15.424C7.31348 14.5284 7.02696 13.4833 7.04173 12.4191C7.0565 11.3549 7.3719 10.3188 7.94856 9.44021C8.52521 8.56162 9.33756 7.87946 10.2842 7.47893C11.2307 7.07839 12.2696 6.97722 13.2711 7.18806C14.2726 7.3989 15.1922 7.91239 15.9152 8.66442C16.4443 9.22234 16.9077 9.75994 17.375 10.33H15.8801C15.7422 10.33 15.6099 10.3871 15.5124 10.4887C15.4149 10.5903 15.3601 10.7281 15.3601 10.8717C15.3601 11.0154 15.4149 11.1531 15.5124 11.2547C15.6099 11.3563 15.7422 11.4134 15.8801 11.4134H18.48C18.6179 11.4134 18.7502 11.3563 18.8477 11.2547C18.9452 11.1531 19 11.0154 19 10.8717V8.16338C19 8.01972 18.9452 7.88195 18.8477 7.78037C18.7502 7.67878 18.6179 7.62172 18.48 7.62172Z" fill="white"/>
</svg>
