<svg width="22" height="12" viewBox="0 0 22 12" fill="none" xmlns="http://www.w3.org/2000/svg">
<path d="M20.2924 0.292688C20.3854 0.199779 20.4957 0.126079 20.617 0.0757962C20.7384 0.0255137 20.8686 -0.000368077 20.9999 -0.000368083C21.1313 -0.000368088 21.2614 0.0255137 21.3828 0.0757961C21.5042 0.126079 21.6145 0.199779 21.7074 0.292688C21.8004 0.385598 21.8741 0.495899 21.9243 0.617292C21.9746 0.738686 22.0005 0.868793 22.0005 1.00019C22.0005 1.13158 21.9746 1.26169 21.9243 1.38309C21.8741 1.50448 21.8004 1.61478 21.7074 1.70769L11.7074 11.7077C11.6146 11.8007 11.5043 11.8744 11.3829 11.9247C11.2615 11.9751 11.1314 12.001 10.9999 12.001C10.8685 12.001 10.7384 11.9751 10.617 11.9247C10.4956 11.8744 10.3853 11.8007 10.2924 11.7077L0.292445 1.70769C0.104805 1.52005 -0.000610826 1.26555 -0.000610832 1.00019C-0.000610839 0.734826 0.104804 0.48033 0.292445 0.292689C0.480086 0.105049 0.734581 -0.000367197 0.999945 -0.000367208C1.26531 -0.00036722 1.5198 0.105049 1.70745 0.292689L10.9999 9.58644L20.2924 0.292688Z" fill="#0A73B9"/>
</svg>
