<svg width="12" height="22" viewBox="0 0 12 22" fill="none" xmlns="http://www.w3.org/2000/svg">
<path d="M0.292325 1.70743C0.199415 1.61452 0.125715 1.50422 0.0754327 1.38283C0.0251502 1.26143 -0.000731551 1.13133 -0.00073154 0.99993C-0.000731528 0.868535 0.0251503 0.738427 0.0754327 0.617034C0.125715 0.495641 0.199415 0.385341 0.292325 0.29243C0.385235 0.199519 0.495536 0.125821 0.616929 0.0755376C0.738322 0.0252542 0.86843 -0.000626584 0.999825 -0.000626572C1.13122 -0.000626561 1.26133 0.0252543 1.38272 0.0755377C1.50412 0.125821 1.61442 0.199519 1.70733 0.29243L11.7073 10.2924C11.8003 10.3853 11.8741 10.4956 11.9244 10.617C11.9747 10.7384 12.0006 10.8685 12.0006 10.9999C12.0006 11.1313 11.9747 11.2615 11.9244 11.3829C11.8741 11.5043 11.8003 11.6146 11.7073 11.7074L1.70732 21.7074C1.51968 21.8951 1.26519 22.0005 0.999824 22.0005C0.73446 22.0005 0.479963 21.8951 0.292323 21.7074C0.104683 21.5198 -0.000733311 21.2653 -0.000733288 20.9999C-0.000733265 20.7346 0.104683 20.4801 0.292323 20.2924L9.58607 10.9999L0.292325 1.70743Z" fill="white"/>
</svg>
