<svg width="17" height="17" viewBox="0 0 17 17" fill="none" xmlns="http://www.w3.org/2000/svg">
<g id="Group 341">
<circle id="Ellipse 49" cx="8.5" cy="8.5" r="8.5" fill="#0A73B9"/>
<path id="Vector" d="M12.8125 5.97473L11.025 4.18751C10.9655 4.12806 10.895 4.0809 10.8173 4.04873C10.7397 4.01656 10.6564 4 10.5724 4C10.4883 4 10.4051 4.01656 10.3274 4.04873C10.2498 4.0809 10.1792 4.12806 10.1198 4.18751L5.1876 9.11997C5.12791 9.17918 5.08059 9.24967 5.04839 9.32733C5.01618 9.405 4.99973 9.48829 5 9.57237V11.36C5 11.5297 5.06743 11.6925 5.18745 11.8125C5.30747 11.9326 5.47025 12 5.63998 12H12.3597C12.4446 12 12.526 11.9663 12.586 11.9063C12.646 11.8463 12.6797 11.7649 12.6797 11.68C12.6797 11.5951 12.646 11.5137 12.586 11.4537C12.526 11.3937 12.4446 11.36 12.3597 11.36H8.33268L12.8125 6.87994C12.8719 6.82051 12.9191 6.74995 12.9513 6.67229C12.9834 6.59463 13 6.51139 13 6.42733C13 6.34327 12.9834 6.26004 12.9513 6.18238C12.9191 6.10472 12.8719 6.03416 12.8125 5.97473ZM9.15984 6.05233L9.82742 6.71994L6.43995 10.1076L5.77237 9.43997L9.15984 6.05233ZM5.63998 11.36V10.2124L6.78753 11.36H5.63998ZM7.55991 11.2276L6.89273 10.56L10.2798 7.17234L10.9474 7.83995L7.55991 11.2276ZM11.3998 7.38754L9.61263 5.59992L10.5726 4.63991L12.3597 6.42753L11.3998 7.38754Z" fill="white"/>
</g>
</svg>
