<svg width="22" height="20" viewBox="0 0 22 20" fill="none" xmlns="http://www.w3.org/2000/svg">
<path d="M22 3.33333H18.7786C18.3857 1.41667 16.8143 0 14.9286 0C13.0429 0 11.4714 1.41667 11.0786 3.33333H0V5H11.0786C11.4714 6.91667 13.0429 8.33333 14.9286 8.33333C16.8143 8.33333 18.3857 6.91667 18.7786 5H22V3.33333ZM14.9286 6.66667C13.5929 6.66667 12.5714 5.58333 12.5714 4.16667C12.5714 2.75 13.5929 1.66667 14.9286 1.66667C16.2643 1.66667 17.2857 2.75 17.2857 4.16667C17.2857 5.58333 16.2643 6.66667 14.9286 6.66667ZM0 16.6667H3.22143C3.61429 18.5833 5.18571 20 7.07143 20C8.95714 20 10.5286 18.5833 10.9214 16.6667H22V15H10.9214C10.5286 13.0833 8.95714 11.6667 7.07143 11.6667C5.18571 11.6667 3.61429 13.0833 3.22143 15H0V16.6667ZM7.07143 13.3333C8.40714 13.3333 9.42857 14.4167 9.42857 15.8333C9.42857 17.25 8.40714 18.3333 7.07143 18.3333C5.73571 18.3333 4.71429 17.25 4.71429 15.8333C4.71429 14.4167 5.73571 13.3333 7.07143 13.3333Z" fill="#0A73B9"/>
</svg>
