<svg width="19" height="19" viewBox="0 0 19 19" fill="none" xmlns="http://www.w3.org/2000/svg">
<path id="Vector" d="M9.5 9.5C8.19375 9.5 7.07552 9.0349 6.14531 8.10469C5.2151 7.17448 4.75 6.05625 4.75 4.75C4.75 3.44375 5.2151 2.32552 6.14531 1.39531C7.07552 0.465104 8.19375 0 9.5 0C10.8062 0 11.9245 0.465104 12.8547 1.39531C13.7849 2.32552 14.25 3.44375 14.25 4.75C14.25 6.05625 13.7849 7.17448 12.8547 8.10469C11.9245 9.0349 10.8062 9.5 9.5 9.5ZM3.325 19C1.48865 19 0 17.5113 0 15.675V15.675C0 15.0021 0.173375 14.3834 0.520125 13.8189C0.866875 13.2545 1.32683 12.8242 1.9 12.5281C3.12708 11.9146 4.37396 11.4542 5.64062 11.1471C6.90729 10.8399 8.19375 10.6867 9.5 10.6875C10.8062 10.6875 12.0927 10.8411 13.3594 11.1482C14.626 11.4554 15.8729 11.9154 17.1 12.5281C17.674 12.825 18.1343 13.2557 18.4811 13.8201C18.8278 14.3846 19.0008 15.0029 19 15.675V15.675C19 17.5113 17.5113 19 15.675 19H3.325Z" fill="#0A73B9"/>
</svg>
