<svg width="26" height="26" viewBox="0 0 26 26" fill="none" xmlns="http://www.w3.org/2000/svg">
<circle cx="13" cy="13" r="13" fill="#0A73B9"/>
<path d="M13 9.78574C12.5505 9.78574 12.1111 9.92189 11.7373 10.177C11.3636 10.4321 11.0723 10.7946 10.9003 11.2188C10.7283 11.643 10.6832 12.1098 10.7709 12.5601C10.8586 13.0104 11.0751 13.424 11.3929 13.7487C11.7108 14.0734 12.1157 14.2945 12.5566 14.384C12.9975 14.4736 13.4544 14.4276 13.8697 14.2519C14.285 14.0762 14.64 13.7787 14.8897 13.3969C15.1394 13.0152 15.2727 12.5663 15.2727 12.1072C15.2727 11.4915 15.0333 10.901 14.6071 10.4657C14.1808 10.0303 13.6028 9.78574 13 9.78574ZM13 13.5001C12.7303 13.5001 12.4667 13.4184 12.2424 13.2653C12.0182 13.1123 11.8434 12.8947 11.7402 12.6402C11.637 12.3857 11.6099 12.1056 11.6626 11.8355C11.7152 11.5653 11.8451 11.3171 12.0358 11.1223C12.2265 10.9275 12.4694 10.7948 12.734 10.7411C12.9985 10.6873 13.2727 10.7149 13.5218 10.8203C13.771 10.9258 13.984 11.1043 14.1338 11.3334C14.2837 11.5624 14.3636 11.8317 14.3636 12.1072C14.3636 12.4766 14.22 12.8309 13.9642 13.0921C13.7085 13.3533 13.3617 13.5001 13 13.5001ZM13 7C11.6744 7.00154 10.4035 7.54011 9.46613 8.49756C8.52877 9.45501 8.0015 10.7532 8 12.1072C8 13.9295 8.82443 15.861 10.3864 17.6932C11.0882 18.5211 11.8781 19.2666 12.7415 19.916C12.8179 19.9707 12.909 20 13.0023 20C13.0956 20 13.1866 19.9707 13.2631 19.916C14.1249 19.2664 14.9132 18.5209 15.6136 17.6932C17.1733 15.861 18 13.9295 18 12.1072C17.9985 10.7532 17.4712 9.45501 16.5339 8.49756C15.5965 7.54011 14.3256 7.00154 13 7ZM13 18.9555C12.0608 18.201 8.90909 15.4298 8.90909 12.1072C8.90909 10.999 9.3401 9.93611 10.1073 9.15247C10.8745 8.36883 11.915 7.92858 13 7.92858C14.085 7.92858 15.1255 8.36883 15.8927 9.15247C16.6599 9.93611 17.0909 10.999 17.0909 12.1072C17.0909 15.4286 13.9392 18.201 13 18.9555Z" fill="white"/>
</svg>
