<svg width="20" height="20" viewBox="0 0 20 20" fill="none" xmlns="http://www.w3.org/2000/svg">
<path d="M13.3333 20L6.66667 17.6667L1.5 19.6667C1.12963 19.8148 0.787037 19.773 0.472222 19.5411C0.157407 19.3093 0 18.9993 0 18.6111V3.05556C0 2.81482 0.0696296 2.60185 0.208889 2.41667C0.348148 2.23148 0.537778 2.09259 0.777778 2L6.66667 0L13.3333 2.33333L18.5 0.333333C18.8704 0.185185 19.213 0.227037 19.5278 0.458889C19.8426 0.690741 20 1.00074 20 1.38889V16.9444C20 17.1852 19.9304 17.3981 19.7911 17.5833C19.6519 17.7685 19.4622 17.9074 19.2222 18L13.3333 20ZM12.2222 17.2778V4.27778L7.77778 2.72222V15.7222L12.2222 17.2778ZM14.4444 17.2778L17.7778 16.1667V3L14.4444 4.27778V17.2778ZM2.22222 17L5.55556 15.7222V2.72222L2.22222 3.83333V17Z" fill="#0A73B9"/>
</svg>
