<svg width="26" height="26" viewBox="0 0 26 26" fill="none" xmlns="http://www.w3.org/2000/svg">
<circle cx="13" cy="13" r="13" fill="#0A73B9"/>
<path d="M19.7435 12.5483L15.3571 10.3559V7.85703C15.3571 7.36451 15.1615 6.89217 14.8132 6.54391C14.4649 6.19565 13.9925 6 13.5 6C13.0075 6 12.5351 6.19565 12.1868 6.54391C11.8385 6.89217 11.6429 7.36451 11.6429 7.85703V10.3559L7.25652 12.5483C7.17938 12.5869 7.11452 12.6463 7.06921 12.7197C7.02391 12.793 6.99994 12.8776 7 12.9639V14.8209C7.00004 14.8896 7.01531 14.9574 7.04472 15.0194C7.07412 15.0815 7.11693 15.1362 7.17006 15.1798C7.22318 15.2233 7.2853 15.2545 7.35194 15.2711C7.41857 15.2877 7.48806 15.2893 7.5554 15.2759L11.6429 14.4588V15.5573L10.8501 16.3495C10.807 16.3926 10.7728 16.4438 10.7495 16.5002C10.7262 16.5565 10.7142 16.6169 10.7143 16.6779V18.5349C10.7142 18.611 10.7327 18.686 10.7684 18.7532C10.804 18.8204 10.8556 18.8779 10.9187 18.9205C10.9818 18.963 11.0543 18.9895 11.13 18.9975C11.2057 19.0054 11.2821 18.9947 11.3527 18.9661L13.5 18.1067L15.6473 18.9661C15.7179 18.9947 15.7943 19.0054 15.87 18.9975C15.9457 18.9895 16.0182 18.963 16.0813 18.9205C16.1444 18.8779 16.196 18.8204 16.2316 18.7532C16.2673 18.686 16.2858 18.611 16.2857 18.5349V16.6779C16.2858 16.6169 16.2738 16.5565 16.2505 16.5002C16.2272 16.4438 16.193 16.3926 16.1499 16.3495L15.3571 15.5573V14.4588L19.4446 15.2759C19.5119 15.2893 19.5814 15.2877 19.6481 15.2711C19.7147 15.2545 19.7768 15.2233 19.8299 15.1798C19.8831 15.1362 19.9259 15.0815 19.9553 15.0194C19.9847 14.9574 20 14.8896 20 14.8209V12.9639C20.0001 12.8776 19.9761 12.793 19.9308 12.7197C19.8855 12.6463 19.8206 12.5869 19.7435 12.5483ZM19.0714 14.2545L14.984 13.4374C14.9166 13.4239 14.8471 13.4256 14.7805 13.4422C14.7139 13.4588 14.6518 13.49 14.5986 13.5335C14.5455 13.577 14.5027 13.6318 14.4733 13.6938C14.4439 13.7559 14.4286 13.8237 14.4286 13.8924V15.7494C14.4285 15.8104 14.4405 15.8708 14.4638 15.9271C14.4871 15.9835 14.5213 16.0347 14.5644 16.0779L15.3571 16.87V17.849L13.6741 17.1752C13.5635 17.131 13.44 17.131 13.3294 17.1752L11.6429 17.849V16.87L12.4356 16.0779C12.4787 16.0347 12.5129 15.9835 12.5362 15.9271C12.5595 15.8708 12.5715 15.8104 12.5714 15.7494V13.8924C12.5714 13.8237 12.5561 13.7559 12.5267 13.6938C12.4973 13.6318 12.4545 13.577 12.4014 13.5335C12.3482 13.49 12.2861 13.4588 12.2195 13.4422C12.1529 13.4256 12.0834 13.4239 12.016 13.4374L7.92857 14.2545V13.2505L12.3149 11.0581C12.392 11.0195 12.4569 10.9602 12.5022 10.8868C12.5475 10.8134 12.5715 10.7288 12.5714 10.6426V7.85703C12.5714 7.61077 12.6693 7.3746 12.8434 7.20047C13.0175 7.02634 13.2537 6.92851 13.5 6.92851C13.7463 6.92851 13.9825 7.02634 14.1566 7.20047C14.3307 7.3746 14.4286 7.61077 14.4286 7.85703V10.6426C14.4285 10.7288 14.4525 10.8134 14.4978 10.8868C14.5431 10.9602 14.608 11.0195 14.6851 11.0581L19.0714 13.2505V14.2545Z" fill="white"/>
</svg>
