<svg width="33" height="34" viewBox="0 0 33 34" fill="none" xmlns="http://www.w3.org/2000/svg">
<path d="M21.8998 17.1598C21.8998 18.1929 21.5935 19.2028 21.0195 20.0619C20.4455 20.9209 19.6297 21.5904 18.6752 21.9858C17.7207 22.3811 16.6704 22.4846 15.6571 22.283C14.6438 22.0815 13.7131 21.584 12.9825 20.8534C12.252 20.1229 11.7545 19.1921 11.5529 18.1788C11.3514 17.1656 11.4548 16.1153 11.8502 15.1608C12.2456 14.2063 12.9151 13.3905 13.7741 12.8165C14.6331 12.2425 15.6431 11.9361 16.6762 11.9361C18.0603 11.9404 19.3864 12.4922 20.3651 13.4709C21.3438 14.4496 21.8955 15.7757 21.8998 17.1598ZM33 9.97728V24.3423C33 26.7667 32.0369 29.0918 30.3226 30.8062C28.6082 32.5205 26.2831 33.4836 23.8587 33.4836H9.4937C7.06927 33.4836 4.74413 32.5205 3.02979 30.8062C1.31546 29.0918 0.352356 26.7667 0.352356 24.3423V9.97728C0.352356 7.55285 1.31546 5.22771 3.02979 3.51338C4.74413 1.79904 7.06927 0.835938 9.4937 0.835938H23.8587C26.2831 0.835938 28.6082 1.79904 30.3226 3.51338C32.0369 5.22771 33 7.55285 33 9.97728ZM24.5116 17.1598C24.5116 15.6101 24.0521 14.0952 23.1911 12.8066C22.3301 11.5181 21.1064 10.5138 19.6747 9.92077C18.2429 9.32772 16.6675 9.17255 15.1476 9.47489C13.6276 9.77722 12.2315 10.5235 11.1357 11.6193C10.0399 12.7151 9.29364 14.1112 8.9913 15.6312C8.68897 17.1511 8.84414 18.7265 9.43719 20.1583C10.0302 21.59 11.0345 22.8137 12.3231 23.6747C13.6116 24.5357 15.1265 24.9952 16.6762 24.9952C18.7543 24.9952 20.7473 24.1697 22.2167 22.7003C23.6861 21.2308 24.5116 19.2379 24.5116 17.1598ZM27.1234 8.67138C27.1234 8.28395 27.0086 7.90523 26.7933 7.58309C26.5781 7.26096 26.2721 7.00989 25.9142 6.86163C25.5563 6.71336 25.1624 6.67457 24.7824 6.75016C24.4024 6.82574 24.0534 7.0123 23.7795 7.28625C23.5055 7.5602 23.3189 7.90924 23.2434 8.28922C23.1678 8.6692 23.2066 9.06307 23.3548 9.421C23.5031 9.77893 23.7542 10.0849 24.0763 10.3001C24.3984 10.5154 24.7772 10.6302 25.1646 10.6302C25.6841 10.6302 26.1823 10.4239 26.5497 10.0565C26.9171 9.68914 27.1234 9.1909 27.1234 8.67138Z" fill="white"/>
</svg>
