<svg width="35" height="35" viewBox="0 0 35 35" fill="none" xmlns="http://www.w3.org/2000/svg">
<path d="M17.4121 0C7.80061 0 0 7.80061 0 17.4121C0 27.0236 7.80061 34.8242 17.4121 34.8242C27.0236 34.8242 34.8242 27.0236 34.8242 17.4121C34.8242 7.80061 27.0236 0 17.4121 0ZM25.4913 11.8402C25.2301 14.5913 24.0983 21.2776 23.5237 24.3595C23.28 25.6654 22.7924 26.1007 22.3397 26.153C21.3298 26.24 20.5637 25.4913 19.5886 24.847C18.0563 23.8371 17.1857 23.2103 15.7057 22.2352C13.9819 21.1034 15.0963 20.4766 16.0888 19.4667C16.3499 19.2055 20.8074 15.1485 20.8945 14.7829C20.9066 14.7275 20.905 14.67 20.8898 14.6154C20.8746 14.5607 20.8464 14.5107 20.8074 14.4694C20.703 14.3824 20.5637 14.4172 20.4418 14.4346C20.2851 14.4694 17.8474 16.0888 13.0939 19.2926C12.3974 19.7627 11.7706 20.0065 11.2134 19.9891C10.5865 19.9717 9.40252 19.6408 8.51451 19.3448C7.41755 18.9966 6.56436 18.805 6.634 18.1956C6.66883 17.8822 7.10413 17.5688 7.9225 17.238C13.0068 15.0266 16.3848 13.564 18.0737 12.8675C22.9143 10.8477 23.9068 10.4995 24.5685 10.4995C24.7077 10.4995 25.0386 10.5343 25.2475 10.7084C25.4216 10.8477 25.4739 11.0393 25.4913 11.1786C25.4739 11.283 25.5087 11.5964 25.4913 11.8402Z" fill="white"/>
</svg>
