<svg width="31" height="18" viewBox="0 0 31 18" fill="none" xmlns="http://www.w3.org/2000/svg">
<path d="M0.913086 0V18H30.9131V0H0.913086ZM8.41309 15.4286C8.41309 14.4056 7.93898 13.4245 7.09507 12.7012C6.25115 11.9778 5.10656 11.5714 3.91309 11.5714V6.42857C5.10656 6.42857 6.25115 6.0222 7.09507 5.29884C7.93898 4.57549 8.41309 3.59441 8.41309 2.57143H23.4131C23.4131 3.59441 23.8872 4.57549 24.7311 5.29884C25.575 6.0222 26.7196 6.42857 27.9131 6.42857V11.5714C26.7196 11.5714 25.575 11.9778 24.7311 12.7012C23.8872 13.4245 23.4131 14.4056 23.4131 15.4286H8.41309ZM15.9131 5.14286C17.5631 5.14286 18.9131 6.81429 18.9131 9C18.9131 11.1857 17.5631 12.8571 15.9131 12.8571C14.2631 12.8571 12.9131 11.1857 12.9131 9C12.9131 6.81429 14.2631 5.14286 15.9131 5.14286Z" fill="#0A73B9"/>
</svg>
