<svg width="13" height="15" viewBox="0 0 13 15" fill="none" xmlns="http://www.w3.org/2000/svg">
<path d="M2.125 10V12.5H5.25V15H7.75V12.5H9C9.8288 12.5 10.6237 12.1708 11.2097 11.5847C11.7958 10.9987 12.125 10.2038 12.125 9.375C12.125 8.5462 11.7958 7.75134 11.2097 7.16529C10.6237 6.57924 9.8288 6.25 9 6.25H4C3.83424 6.25 3.67527 6.18415 3.55806 6.06694C3.44085 5.94973 3.375 5.79076 3.375 5.625C3.375 5.45924 3.44085 5.30027 3.55806 5.18306C3.67527 5.06585 3.83424 5 4 5H10.875V2.5H7.75V0H5.25V2.5H4C3.1712 2.5 2.37634 2.82924 1.79029 3.41529C1.20424 4.00134 0.875 4.7962 0.875 5.625C0.875 6.4538 1.20424 7.24866 1.79029 7.83471C2.37634 8.42076 3.1712 8.75 4 8.75H9C9.16576 8.75 9.32473 8.81585 9.44194 8.93306C9.55915 9.05027 9.625 9.20924 9.625 9.375C9.625 9.54076 9.55915 9.69973 9.44194 9.81694C9.32473 9.93415 9.16576 10 9 10H2.125Z" fill="#0A73B9"/>
</svg>
