<svg width="25" height="25" viewBox="0 0 25 25" fill="none" xmlns="http://www.w3.org/2000/svg">
<path d="M25 12.5C25 19.4036 19.4036 25 12.5 25C5.59644 25 0 19.4036 0 12.5C0 5.59644 5.59644 0 12.5 0C19.4036 0 25 5.59644 25 12.5Z" fill="#F9B123"/>
<path d="M8.25 15V17.5H11.375V20H13.875V17.5H15.125C15.9538 17.5 16.7487 17.1708 17.3347 16.5847C17.9208 15.9987 18.25 15.2038 18.25 14.375C18.25 13.5462 17.9208 12.7513 17.3347 12.1653C16.7487 11.5792 15.9538 11.25 15.125 11.25H10.125C9.95924 11.25 9.80027 11.1842 9.68306 11.0669C9.56585 10.9497 9.5 10.7908 9.5 10.625C9.5 10.4592 9.56585 10.3003 9.68306 10.1831C9.80027 10.0658 9.95924 10 10.125 10H17V7.5H13.875V5H11.375V7.5H10.125C9.2962 7.5 8.50134 7.82924 7.91529 8.41529C7.32924 9.00134 7 9.7962 7 10.625C7 11.4538 7.32924 12.2487 7.91529 12.8347C8.50134 13.4208 9.2962 13.75 10.125 13.75H15.125C15.2908 13.75 15.4497 13.8158 15.5669 13.9331C15.6842 14.0503 15.75 14.2092 15.75 14.375C15.75 14.5408 15.6842 14.6997 15.5669 14.8169C15.4497 14.9342 15.2908 15 15.125 15H8.25Z" fill="white"/>
</svg>
