<svg width="12" height="13" viewBox="0 0 12 13" fill="none" xmlns="http://www.w3.org/2000/svg">
<path d="M4.0625 5.24991C4.17079 4.71825 4.41563 4.22394 4.77294 3.81563C5.13025 3.40732 5.58772 3.09908 6.10032 2.92123C6.61292 2.74338 7.16299 2.70207 7.69641 2.80134C8.22982 2.90061 8.7282 3.13706 9.1425 3.48741L11.2687 2.07116C10.5386 1.27586 9.59504 0.707481 8.55066 0.433875C7.50628 0.160269 6.40522 0.192997 5.37893 0.528151C4.35265 0.863305 3.44449 1.48673 2.76289 2.32399C2.08128 3.16125 1.65502 4.17698 1.535 5.24991H0.25V7.74991H1.53375C1.65357 8.82311 2.07977 9.83914 2.76145 10.6767C3.44314 11.5142 4.35149 12.1378 5.37802 12.4729C6.40455 12.8081 7.50587 12.8408 8.55044 12.5669C9.59502 12.2931 10.5387 11.7244 11.2687 10.9287L9.1425 9.51116C8.72829 9.8615 8.23 10.098 7.69667 10.1973C7.16333 10.2967 6.61332 10.2555 6.10075 10.0777C5.58817 9.90004 5.13069 9.59195 4.77331 9.18379C4.41593 8.77563 4.17096 8.28147 4.0625 7.74991L10.25 7.75116V5.25116H4.0625V5.24991Z" fill="#0A73B9"/>
</svg>
