<svg width="25" height="25" viewBox="0 0 25 25" fill="none" xmlns="http://www.w3.org/2000/svg">
<path d="M25 12.5C25 19.4036 19.4036 25 12.5 25C5.59644 25 0 19.4036 0 12.5C0 5.59644 5.59644 0 12.5 0C19.4036 0 25 5.59644 25 12.5Z" fill="#F9B123"/>
<path d="M10.8125 10.9997C10.9208 10.468 11.1656 9.9737 11.5229 9.56539C11.8803 9.15708 12.3377 8.84883 12.8503 8.67099C13.3629 8.49314 13.913 8.45182 14.4464 8.5511C14.9798 8.65037 15.4782 8.88682 15.8925 9.23717L18.0187 7.82092C17.2886 7.02562 16.345 6.45724 15.3007 6.18363C14.2563 5.91002 13.1552 5.94275 12.1289 6.27791C11.1026 6.61306 10.1945 7.23648 9.51289 8.07374C8.83128 8.911 8.40502 9.92673 8.285 10.9997H7V13.4997H8.28375C8.40357 14.5729 8.82977 15.5889 9.51145 16.4264C10.1931 17.2639 11.1015 17.8875 12.128 18.2227C13.1546 18.5579 14.2559 18.5905 15.3004 18.3167C16.345 18.0428 17.2887 17.4741 18.0187 16.6784L15.8925 15.2609C15.4783 15.6113 14.98 15.8477 14.4467 15.9471C13.9133 16.0464 13.3633 16.0052 12.8507 15.8275C12.3382 15.6498 11.8807 15.3417 11.5233 14.9335C11.1659 14.5254 10.921 14.0312 10.8125 13.4997L17 13.5009V11.0009H10.8125V10.9997Z" fill="white"/>
</svg>
