<svg width="25" height="25" viewBox="0 0 25 25" fill="none" xmlns="http://www.w3.org/2000/svg">
<path d="M25 12.5C25 19.4036 19.4036 25 12.5 25C5.59644 25 0 19.4036 0 12.5C0 5.59644 5.59644 0 12.5 0C19.4036 0 25 5.59644 25 12.5Z" fill="#0A73B9"/>
<path d="M9.8125 10.9997C9.92079 10.468 10.1656 9.9737 10.5229 9.56539C10.8803 9.15708 11.3377 8.84883 11.8503 8.67099C12.3629 8.49314 12.913 8.45182 13.4464 8.5511C13.9798 8.65037 14.4782 8.88682 14.8925 9.23717L17.0187 7.82092C16.2886 7.02562 15.345 6.45724 14.3007 6.18363C13.2563 5.91002 12.1552 5.94275 11.1289 6.27791C10.1026 6.61306 9.19449 7.23648 8.51289 8.07374C7.83128 8.911 7.40502 9.92673 7.285 10.9997H6V13.4997H7.28375C7.40357 14.5729 7.82977 15.5889 8.51145 16.4264C9.19314 17.2639 10.1015 17.8875 11.128 18.2227C12.1546 18.5579 13.2559 18.5905 14.3004 18.3167C15.345 18.0428 16.2887 17.4741 17.0187 16.6784L14.8925 15.2609C14.4783 15.6113 13.98 15.8477 13.4467 15.9471C12.9133 16.0464 12.3633 16.0052 11.8507 15.8275C11.3382 15.6498 10.8807 15.3417 10.5233 14.9335C10.1659 14.5254 9.92096 14.0312 9.8125 13.4997L16 13.5009V11.0009H9.8125V10.9997Z" fill="white"/>
</svg>
