<svg width="25" height="25" viewBox="0 0 25 25" fill="none" xmlns="http://www.w3.org/2000/svg">
<path d="M25 12.5C25 19.4036 19.4036 25 12.5 25C5.59644 25 0 19.4036 0 12.5C0 5.59644 5.59644 0 12.5 0C19.4036 0 25 5.59644 25 12.5Z" fill="#0A73B9"/>
<path fill-rule="evenodd" clip-rule="evenodd" d="M12.6596 6.25C12.6596 5.91848 12.5279 5.60054 12.2934 5.36612C12.059 5.1317 11.7411 5 11.4096 5C11.078 5 10.7601 5.1317 10.5257 5.36612C10.2912 5.60054 10.1596 5.91848 10.1596 6.25V8.915L7.7258 10.1325C7.57383 10.2027 7.43751 10.3027 7.32492 10.4266C7.21234 10.5505 7.12578 10.6957 7.0704 10.8537C7.01501 11.0117 6.99192 11.1792 7.0025 11.3462C7.01307 11.5133 7.0571 11.6766 7.13197 11.8263C7.20683 11.976 7.31101 12.1092 7.43832 12.2179C7.56563 12.3266 7.71348 12.4086 7.87309 12.4591C8.0327 12.5096 8.20083 12.5275 8.36749 12.5117C8.53415 12.496 8.69595 12.447 8.8433 12.3675L10.1596 11.71V12.665L7.7258 13.8825C7.57383 13.9527 7.43751 14.0527 7.32492 14.1766C7.21234 14.3005 7.12578 14.4457 7.0704 14.6037C7.01501 14.7617 6.99192 14.9292 7.0025 15.0962C7.01307 15.2633 7.0571 15.4266 7.13197 15.5763C7.20683 15.726 7.31101 15.8592 7.43832 15.9679C7.56563 16.0766 7.71348 16.1586 7.87309 16.2091C8.0327 16.2596 8.20083 16.2775 8.36749 16.2617C8.53415 16.246 8.69595 16.197 8.8433 16.1175L10.1596 15.46V18.75C10.1596 19.0815 10.2912 19.3995 10.5257 19.6339C10.7601 19.8683 11.078 20 11.4096 20C12.3308 20 13.6421 19.5837 14.8421 18.8975C16.0721 18.195 17.382 17.0987 18.152 15.56C18.2299 15.4128 18.2776 15.2515 18.2923 15.0857C18.307 14.9198 18.2884 14.7527 18.2376 14.5941C18.1868 14.4355 18.1048 14.2887 17.9964 14.1622C17.8881 14.0357 17.7556 13.9322 17.6067 13.8577C17.4578 13.7831 17.2955 13.7391 17.1293 13.7281C16.9631 13.7172 16.7965 13.7396 16.6391 13.7939C16.4817 13.8483 16.3367 13.9336 16.2127 14.0447C16.0887 14.1559 15.9882 14.2907 15.9171 14.4413C15.437 15.4013 14.5595 16.1788 13.602 16.7275C13.299 16.9008 12.984 17.0524 12.6596 17.1812V14.21L15.0933 12.9925C15.2453 12.9223 15.3816 12.8223 15.4942 12.6984C15.6068 12.5745 15.6933 12.4293 15.7487 12.2713C15.8041 12.1133 15.8272 11.9458 15.8166 11.7788C15.806 11.6117 15.762 11.4484 15.6871 11.2987C15.6123 11.149 15.5081 11.0158 15.3808 10.9071C15.2535 10.7984 15.1056 10.7164 14.946 10.6659C14.7864 10.6154 14.6183 10.5975 14.4516 10.6133C14.285 10.629 14.1231 10.678 13.9758 10.7575L12.6596 11.415V10.46L15.0933 9.2425C15.2453 9.1723 15.3816 9.07228 15.4942 8.94839C15.6068 8.82451 15.6933 8.67926 15.7487 8.52129C15.8041 8.36331 15.8272 8.19582 15.8166 8.02875C15.806 7.86168 15.762 7.69844 15.6871 7.54871C15.6123 7.39898 15.5081 7.26581 15.3808 7.15711C15.2535 7.0484 15.1056 6.96638 14.946 6.9159C14.7864 6.86543 14.6183 6.84752 14.4516 6.86326C14.285 6.87899 14.1231 6.92804 13.9758 7.0075L12.6596 7.665V6.25Z" fill="white"/>
</svg>
