<svg width="12" height="15" viewBox="0 0 12 15" fill="none" xmlns="http://www.w3.org/2000/svg">
<path fill-rule="evenodd" clip-rule="evenodd" d="M5.99988 1.25C5.99988 0.918479 5.86819 0.600537 5.63377 0.366117C5.39935 0.131696 5.0814 0 4.74988 0C4.41836 0 4.10042 0.131696 3.866 0.366117C3.63158 0.600537 3.49988 0.918479 3.49988 1.25V3.915L1.06613 5.1325C0.914161 5.2027 0.777838 5.30272 0.665252 5.42661C0.552667 5.55049 0.466113 5.69574 0.410728 5.85371C0.355342 6.01169 0.332253 6.17918 0.342829 6.34625C0.353406 6.51332 0.397433 6.67656 0.472298 6.82629C0.547164 6.97602 0.651342 7.10919 0.778651 7.21789C0.905961 7.3266 1.05381 7.40862 1.21342 7.4591C1.37303 7.50957 1.54116 7.52748 1.70782 7.51174C1.87448 7.49601 2.03629 7.44696 2.18363 7.3675L3.49988 6.71V7.665L1.06613 8.8825C0.914161 8.9527 0.777838 9.05272 0.665252 9.17661C0.552667 9.3005 0.466113 9.44574 0.410728 9.60371C0.355342 9.76169 0.332253 9.92918 0.342829 10.0962C0.353406 10.2633 0.397433 10.4266 0.472298 10.5763C0.547164 10.726 0.651342 10.8592 0.778651 10.9679C0.905961 11.0766 1.05381 11.1586 1.21342 11.2091C1.37303 11.2596 1.54116 11.2775 1.70782 11.2617C1.87448 11.246 2.03629 11.197 2.18363 11.1175L3.49988 10.46V13.75C3.49988 14.0815 3.63158 14.3995 3.866 14.6339C4.10042 14.8683 4.41836 15 4.74988 15C5.67113 15 6.98238 14.5837 8.18238 13.8975C9.41238 13.195 10.7224 12.0987 11.4924 10.56C11.5703 10.4128 11.6179 10.2515 11.6326 10.0857C11.6473 9.91979 11.6287 9.75266 11.5779 9.59407C11.5271 9.43549 11.4451 9.28865 11.3368 9.16219C11.2284 9.03573 11.0959 8.93219 10.947 8.85765C10.7981 8.78312 10.6358 8.73908 10.4696 8.72814C10.3035 8.7172 10.1368 8.73956 9.9794 8.79393C9.822 8.8483 9.67705 8.93356 9.55306 9.04472C9.42907 9.15588 9.32855 9.2907 9.25738 9.44125C8.77738 10.4013 7.89988 11.1788 6.94238 11.7275C6.6393 11.9008 6.32435 12.0524 5.99988 12.1812V9.21L8.43363 7.9925C8.5856 7.9223 8.72193 7.82228 8.83451 7.69839C8.9471 7.57451 9.03365 7.42926 9.08904 7.27129C9.14442 7.11331 9.16751 6.94582 9.15694 6.77875C9.14636 6.61168 9.10233 6.44844 9.02747 6.29871C8.9526 6.14898 8.84842 6.01581 8.72112 5.90711C8.59381 5.7984 8.44596 5.71638 8.28635 5.6659C8.12673 5.61543 7.95861 5.59752 7.79195 5.61326C7.62528 5.62899 7.46348 5.67804 7.31613 5.7575L5.99988 6.415V5.46L8.43363 4.2425C8.5856 4.1723 8.72193 4.07228 8.83451 3.94839C8.9471 3.82451 9.03365 3.67926 9.08904 3.52129C9.14442 3.36331 9.16751 3.19582 9.15694 3.02875C9.14636 2.86168 9.10233 2.69844 9.02747 2.54871C8.9526 2.39898 8.84842 2.26581 8.72112 2.15711C8.59381 2.0484 8.44596 1.96638 8.28635 1.9159C8.12673 1.86543 7.95861 1.84752 7.79195 1.86326C7.62528 1.87899 7.46348 1.92804 7.31613 2.0075L5.99988 2.665V1.25Z" fill="#0A73B9"/>
</svg>
