<svg width="25" height="25" viewBox="0 0 25 25" fill="none" xmlns="http://www.w3.org/2000/svg">
<path d="M25 12.5C25 19.4036 19.4036 25 12.5 25C5.59644 25 0 19.4036 0 12.5C0 5.59644 5.59644 0 12.5 0C19.4036 0 25 5.59644 25 12.5Z" fill="#0A73B9"/>
<path d="M13.8567 14.3571C16.295 14.3571 18 12.6318 18 10.1516C18 7.67143 16.295 6 13.8567 6H9.17708C8.98725 6 8.83333 6.15591 8.83333 6.34821V12.3442H7.34375C7.15391 12.3442 7 12.5001 7 12.6924V14.0089C7 14.2012 7.15391 14.3571 7.34375 14.3571H8.83333V15.2857H7.34375C7.15391 15.2857 7 15.4416 7 15.6339V16.7946C7 16.9869 7.15391 17.1429 7.34375 17.1429H8.83333V18.6518C8.83333 18.8441 8.98725 19 9.17708 19H10.8546C11.0444 19 11.1983 18.8441 11.1983 18.6518V17.1429H15.8229C16.0128 17.1429 16.1667 16.9869 16.1667 16.7946V15.6339C16.1667 15.4416 16.0128 15.2857 15.8229 15.2857H11.1983V14.3571H13.8567ZM11.1983 7.99492H13.4533C14.7917 7.99492 15.5983 8.83963 15.5983 10.1516C15.5983 11.4816 14.7917 12.3442 13.4167 12.3442H11.1983V7.99492Z" fill="white"/>
</svg>
