<svg width="11" height="13" viewBox="0 0 11 13" fill="none" xmlns="http://www.w3.org/2000/svg">
<path d="M6.85667 8.35714C9.295 8.35714 11 6.6318 11 4.15161C11 1.67143 9.295 0 6.85667 0H2.17708C1.98725 0 1.83333 0.155913 1.83333 0.348214V6.34423H0.34375C0.153914 6.34423 0 6.50014 0 6.69245V8.00893C0 8.20123 0.153914 8.35714 0.34375 8.35714H1.83333V9.28571H0.34375C0.153914 9.28571 0 9.44163 0 9.63393V10.7946C0 10.9869 0.153914 11.1429 0.34375 11.1429H1.83333V12.6518C1.83333 12.8441 1.98725 13 2.17708 13H3.85458C4.04442 13 4.19833 12.8441 4.19833 12.6518V11.1429H8.82292C9.01275 11.1429 9.16667 10.9869 9.16667 10.7946V9.63393C9.16667 9.44163 9.01275 9.28571 8.82292 9.28571H4.19833V8.35714H6.85667ZM4.19833 1.99492H6.45333C7.79167 1.99492 8.59833 2.83963 8.59833 4.15161C8.59833 5.48156 7.79167 6.34423 6.41667 6.34423H4.19833V1.99492Z" fill="#0A73B9"/>
</svg>
