<svg width="163" height="34" viewBox="0 0 163 34" fill="none" xmlns="http://www.w3.org/2000/svg">
<g clip-path="url(#clip0_693_23208)">
<path d="M22.6 7.0004V26.4004H16.4L15.8 25.2004C14.3 26.4004 12.3 27.1004 10.1 27.1004C4.10001 27.1004 0 22.9004 0 16.7004C0 10.5004 4.10001 6.40039 10.1 6.40039C12.3 6.40039 14.3 7.10039 15.8 8.40039L16.5 7.10041H22.6V7.0004ZM11.6 20.4004C13.6 20.4004 15.2 18.8004 15.2 16.7004C15.2 14.6004 13.7 13.0004 11.6 13.0004C9.50001 13.0004 8 14.6004 8 16.7004C8 18.8004 9.50001 20.4004 11.6 20.4004Z" fill="white"/>
<path d="M48.4 16.6002C48.4 22.8002 44.3 27.0002 38.3 27.0002C36.7 27.0002 35.2 26.6002 33.9 25.9002V33.3002H26V6.90022H31.6L32.3 8.40022C33.9 7.00022 35.9 6.2002 38.2 6.2002C44.3 6.2002 48.4 10.4002 48.4 16.6002ZM40.3 16.6002C40.3 14.4002 38.8 12.9002 36.7 12.9002C34.6 12.9002 33.1 14.5002 33.1 16.6002C33.1 18.7002 34.6 20.3002 36.7 20.3002C38.8 20.4002 40.3 18.8002 40.3 16.6002Z" fill="white"/>
<path d="M72.4001 7.0004V26.4004H66.2L65.6 25.2004C64.1 26.4004 62.1001 27.1004 59.9001 27.1004C53.9001 27.1004 49.8 22.9004 49.8 16.7004C49.8 10.5004 53.9001 6.40039 59.9001 6.40039C62.1001 6.40039 64.1 7.10039 65.6 8.40039L66.3001 7.10041H72.4001V7.0004ZM61.4001 20.4004C63.4001 20.4004 65 18.8004 65 16.7004C65 14.6004 63.5001 13.0004 61.4001 13.0004C59.3001 13.0004 57.8 14.6004 57.8 16.7004C57.8 18.8004 59.3001 20.4004 61.4001 20.4004Z" fill="white"/>
<path d="M89.4 6.90039V14.0004H86.5C84.8 14.0004 83.8 14.9004 83.8 16.6004V26.3004H75.8V6.90039H81.5L82.6 8.90039C84 7.40039 85.6 6.90039 87.7 6.90039H89.4Z" fill="white"/>
<path d="M106.2 19.3999V26.3999H100.8C96.5 26.3999 93.9 23.7999 93.9 19.4999V13.0999H90.3V11.0999L100 0.799805H101.7V6.99982H106.1V12.9999H101.9V17.7998C101.9 18.6998 102.5 19.2998 103.4 19.2998H106.2V19.3999Z" fill="white"/>
<path d="M130.1 7L122.1 26.4H115L107 7H116L118.7 17.1L121.4 7H130.1Z" fill="white"/>
<path d="M131.6 7H139.6V26.4H131.6V7ZM131.7 0H139.6V4.60001H131.7V0Z" fill="white"/>
<path d="M143 0H151V26.4H143V0Z" fill="white"/>
<path d="M154.4 0H162.4V26.4H154.4V0Z" fill="white"/>
<path d="M106.1 7H90.3V14.1H106.1V7Z" fill="white"/>
<path d="M101.7 0.700195H93.9001V13.2002H101.7V0.700195Z" fill="white"/>
</g>
<defs>
<clipPath id="clip0_693_23208">
<rect width="163" height="34" fill="white"/>
</clipPath>
</defs>
</svg>
