<svg width="36" height="35" viewBox="0 0 36 35" fill="none" xmlns="http://www.w3.org/2000/svg">
<circle cx="18.3145" cy="17.5" r="17.5" fill="#0A73B9"/>
<mask id="mask0_127_12" style="mask-type:alpha" maskUnits="userSpaceOnUse" x="0" y="0" width="36" height="35">
<circle cx="18.3145" cy="17.5" r="17.5" fill="#D9D9D9"/>
</mask>
<g mask="url(#mask0_127_12)">
<path d="M18.5 22C16.7812 22 15.3099 21.3635 14.0859 20.0906C12.862 18.8177 12.25 17.2875 12.25 15.5C12.25 13.7125 12.862 12.1823 14.0859 10.9094C15.3099 9.63646 16.7812 9 18.5 9C20.2187 9 21.6901 9.63646 22.9141 10.9094C24.138 12.1823 24.75 13.7125 24.75 15.5C24.75 17.2875 24.138 18.8177 22.9141 20.0906C21.6901 21.3635 20.2187 22 18.5 22ZM6 35V30.45C6 29.5292 6.22813 28.6825 6.68438 27.9101C7.14063 27.1377 7.74583 26.5489 8.5 26.1438C10.1146 25.3042 11.7552 24.6742 13.4219 24.2539C15.0885 23.8335 16.7812 23.6239 18.5 23.625C20.2187 23.625 21.9115 23.8352 23.5781 24.2555C25.2448 24.6758 26.8854 25.3053 28.5 26.1438C29.2552 26.55 29.8609 27.1393 30.3172 27.9117C30.7734 28.6842 31.001 29.5303 31 30.45V35H6Z" fill="white"/>
</g>
</svg>
