<svg width="16" height="15" viewBox="0 0 16 15" fill="none" xmlns="http://www.w3.org/2000/svg">
<path d="M6.57447 2.06794L6.9532 1.13305L5.97985 1.39772C4.47283 1.80751 3.16592 2.73513 2.30301 4.01289C1.43985 5.29103 1.08033 6.83198 1.29327 8.35041C1.50619 9.86868 2.27642 11.2577 3.45767 12.2622C4.6386 13.2664 6.15092 13.819 7.71483 13.821C9.39378 13.8231 11.0104 13.1906 12.2229 12.0531C13.4358 10.9152 14.1495 9.36039 14.209 7.71591C14.2684 6.07138 13.6686 4.47111 12.5402 3.25249C11.4122 2.03431 9.84476 1.29277 8.16973 1.18013L7.88336 1.16087L7.72231 1.39844C6.98843 2.48103 6.93024 3.4888 6.93024 3.61471H6.93007L6.9304 3.62756C6.93573 3.83475 7.02411 4.02879 7.17214 4.16922L7.50284 3.82062L7.17214 4.16922C7.31973 4.30923 7.51498 4.38535 7.71562 4.38529V4.38537L7.7247 4.38521C7.84777 4.38293 7.96924 4.35353 8.08005 4.29863L8.10939 4.28409L8.13658 4.26586C8.1771 4.23868 8.22372 4.21947 8.27361 4.21007C8.32352 4.20067 8.37496 4.20142 8.42449 4.21224C8.47401 4.22306 8.51991 4.24358 8.55945 4.27182C8.59896 4.30003 8.63107 4.33519 8.65447 4.37446L9.084 4.11854L8.65447 4.37446C8.67784 4.41369 8.69221 4.45647 8.69731 4.50009C8.7024 4.54371 8.6982 4.58799 8.68477 4.63036C8.67133 4.67277 8.64873 4.71296 8.61761 4.74809C8.58645 4.78327 8.54737 4.81266 8.50233 4.83368L8.48341 4.84251L8.4653 4.85288C8.2394 4.98224 7.9809 5.05081 7.7169 5.05042C7.31572 5.04896 6.93405 4.89313 6.6544 4.62105C6.37515 4.34934 6.22023 3.98415 6.21885 3.60595L6.21887 3.6057L6.21895 3.59969L6.21959 3.57649C6.22032 3.55619 6.22176 3.52642 6.22461 3.48806C6.23032 3.4113 6.24164 3.30046 6.26407 3.16246C6.309 2.88613 6.39811 2.50326 6.57447 2.06794ZM9.90246 10.0882L9.90239 10.0882L9.90769 10.0958C9.93242 10.1314 9.94917 10.1707 9.95759 10.2112C9.966 10.2517 9.96607 10.2934 9.95778 10.3339C9.94949 10.3745 9.93288 10.4138 9.90826 10.4494C9.88363 10.4851 9.85133 10.5165 9.81266 10.5414L9.81192 10.5419C9.19147 10.9419 8.46227 11.156 7.71547 11.156C6.96878 11.156 6.23969 10.942 5.61931 10.542C5.54048 10.4909 5.48948 10.4141 5.47237 10.3314C5.45529 10.2488 5.47216 10.1619 5.52197 10.089C5.57217 10.0156 5.65302 9.96099 5.7494 9.94212L5.65334 9.45144L5.7494 9.94212C5.84597 9.92322 5.94534 9.94283 6.02483 9.99426L6.02531 9.99457C6.52748 10.3187 7.11534 10.4908 7.71547 10.4908C8.31559 10.4908 8.90345 10.3187 9.40562 9.99457L9.40751 9.99334C9.44606 9.96821 9.49006 9.95036 9.53702 9.94137C9.584 9.93239 9.63243 9.93258 9.67931 9.94192L9.77704 9.45156L9.67932 9.94192C9.72619 9.95126 9.77001 9.96945 9.80832 9.99485C9.8466 10.0202 9.8784 10.0521 9.90246 10.0882ZM5.60647 7.91965L5.95515 8.27801L5.60647 7.91965C5.48726 8.03563 5.32273 8.10315 5.1484 8.10315C5.01864 8.10315 4.89286 8.06564 4.78707 7.99686C4.68141 7.92818 4.60118 7.83197 4.55437 7.72202C4.50763 7.61223 4.49563 7.49225 4.51927 7.37664C4.54292 7.26094 4.60167 7.15273 4.69032 7.06648C4.77912 6.98008 4.89389 6.91977 5.02082 6.8952C5.14781 6.87062 5.2793 6.88335 5.39811 6.93123C5.51681 6.97907 5.61607 7.05919 5.68487 7.15939C5.75356 7.2594 5.78932 7.3755 5.78932 7.49306C5.78932 7.65038 5.72522 7.80411 5.60647 7.91965ZM10.155 8.09093L10.06 8.58182L10.155 8.09093C10.028 8.06636 9.91325 8.00604 9.82446 7.91965C9.73581 7.83339 9.67706 7.72519 9.6534 7.60948C9.62977 7.49388 9.64177 7.37389 9.68851 7.2641C9.73532 7.15415 9.81555 7.05795 9.9212 6.98926C10.027 6.92048 10.1528 6.88298 10.2825 6.88298C10.4569 6.88298 10.6214 6.95049 10.7406 7.06648C10.8594 7.18201 10.9235 7.33575 10.9235 7.49306C10.9235 7.61063 10.8877 7.72672 10.819 7.82674C10.7502 7.92693 10.6509 8.00705 10.5322 8.05489C10.4134 8.10278 10.2819 8.1155 10.155 8.09093ZM2.60286 2.5585C3.9523 1.24371 5.78597 0.501783 7.70143 0.5H7.71524C9.6307 0.501783 11.4644 1.24371 12.8138 2.5585C14.1628 3.87288 14.9175 5.65176 14.9167 7.50323C14.9158 9.3547 14.1594 11.1329 12.8091 12.4461C11.4583 13.7597 9.62388 14.5 7.70833 14.5C5.79279 14.5 3.95832 13.7597 2.60757 12.4461C1.25729 11.1329 0.500881 9.3547 0.500001 7.50323C0.499121 5.65176 1.25384 3.87288 2.60286 2.5585Z" fill="#0A73B9" stroke="#0A73B9"/>
</svg>
