<svg width="13" height="15" viewBox="0 0 13 15" fill="none" xmlns="http://www.w3.org/2000/svg">
<path d="M6.42857 15L4.28571 12.8571H1.42857C1.03571 12.8571 0.699286 12.7174 0.419286 12.4379C0.139762 12.1579 0 11.8214 0 11.4286V1.42857C0 1.03571 0.139762 0.699286 0.419286 0.419286C0.699286 0.139762 1.03571 0 1.42857 0H11.4286C11.8214 0 12.1579 0.139762 12.4379 0.419286C12.7174 0.699286 12.8571 1.03571 12.8571 1.42857V11.4286C12.8571 11.8214 12.7174 12.1579 12.4379 12.4379C12.1579 12.7174 11.8214 12.8571 11.4286 12.8571H8.57143L6.42857 15ZM6.42857 7.14286C7.11905 7.14286 7.70833 6.89881 8.19643 6.41071C8.68452 5.92262 8.92857 5.33333 8.92857 4.64286C8.92857 3.95238 8.68452 3.3631 8.19643 2.875C7.70833 2.3869 7.11905 2.14286 6.42857 2.14286C5.73809 2.14286 5.14881 2.3869 4.66071 2.875C4.17262 3.3631 3.92857 3.95238 3.92857 4.64286C3.92857 5.33333 4.17262 5.92262 4.66071 6.41071C5.14881 6.89881 5.73809 7.14286 6.42857 7.14286ZM6.42857 13L8 11.4286H11.4286V10.6071C10.7857 9.97619 10.0388 9.47905 9.18786 9.11572C8.33643 8.75286 7.41667 8.57143 6.42857 8.57143C5.44048 8.57143 4.52095 8.75286 3.67 9.11572C2.81857 9.47905 2.07143 9.97619 1.42857 10.6071V11.4286H4.85714L6.42857 13Z" fill="#0A73B9"/>
</svg>
