<svg width="22" height="15" viewBox="0 0 22 15" fill="none" xmlns="http://www.w3.org/2000/svg">
<path d="M13.2812 3H10.2812V0.5C10.2812 0.367392 10.2286 0.240215 10.1348 0.146447C10.041 0.0526784 9.91386 0 9.78125 0C9.64864 0 9.52146 0.0526784 9.4277 0.146447C9.33393 0.240215 9.28125 0.367392 9.28125 0.5V3H5.28125V0.5C5.28125 0.367392 5.22857 0.240215 5.1348 0.146447C5.04104 0.0526784 4.91386 0 4.78125 0C4.64864 0 4.52146 0.0526784 4.4277 0.146447C4.33393 0.240215 4.28125 0.367392 4.28125 0.5V3H1.31562C0.92375 3 0.78125 3.29875 0.78125 3.5C0.78125 3.63261 0.833928 3.75979 0.927697 3.85355C1.02146 3.94732 1.14864 4 1.28125 4H2.28125V9.5C2.28125 10.163 2.54464 10.7989 3.01348 11.2678C3.48232 11.7366 4.11821 12 4.78125 12H6.78125V14.5C6.78125 14.6326 6.83393 14.7598 6.9277 14.8536C7.02146 14.9473 7.14864 15 7.28125 15C7.41386 15 7.54104 14.9473 7.6348 14.8536C7.72857 14.7598 7.78125 14.6326 7.78125 14.5V12H9.78125C10.4443 12 11.0802 11.7366 11.549 11.2678C12.0179 10.7989 12.2812 10.163 12.2812 9.5V4H13.2812C13.4139 4 13.541 3.94732 13.6348 3.85355C13.7286 3.75979 13.7812 3.63261 13.7812 3.5C13.7812 3.36739 13.7286 3.24021 13.6348 3.14645C13.541 3.05268 13.4139 3 13.2812 3ZM9.78125 11H4.78125C4.38343 11 4.00189 10.842 3.72059 10.5607C3.43929 10.2794 3.28125 9.89782 3.28125 9.5V4H11.2812V9.5C11.2812 9.89782 11.1232 10.2794 10.8419 10.5607C10.5606 10.842 10.1791 11 9.78125 11ZM8.6925 7.215C8.73851 7.28146 8.76772 7.35809 8.77762 7.43831C8.78753 7.51854 8.77784 7.59997 8.74938 7.67562L7.99938 9.67562C7.9528 9.79994 7.85874 9.90067 7.7379 9.95564C7.61705 10.0106 7.47932 10.0153 7.355 9.96875C7.23068 9.92217 7.12995 9.82811 7.07498 9.70727C7.02001 9.58643 7.0153 9.4487 7.06187 9.32438L7.56188 8H6.28125C6.20045 8 6.12086 7.98042 6.04929 7.94293C5.97772 7.90545 5.91629 7.85117 5.87028 7.78476C5.82426 7.71835 5.79503 7.64178 5.78507 7.5616C5.77512 7.48142 5.78475 7.40002 5.81313 7.32438L6.56313 5.32438C6.6097 5.20006 6.70376 5.09933 6.8246 5.04436C6.94545 4.98939 7.08318 4.98467 7.2075 5.03125C7.33182 5.07783 7.43255 5.17189 7.48752 5.29273C7.54249 5.41357 7.5472 5.5513 7.50062 5.67562L7.00063 7H8.28125C8.36207 6.99993 8.4417 7.01945 8.51333 7.0569C8.58495 7.09434 8.64643 7.14859 8.6925 7.215Z" fill="#0A73B9"/>
<path d="M19.4286 7C18.2457 7 17.2857 7.87415 17.2857 8.95122C17.2857 10.0283 18.2457 10.9024 19.4286 10.9024C20.6114 10.9024 21.5714 10.0283 21.5714 8.95122C21.5714 7.87415 20.6114 7 19.4286 7ZM19.4286 10.122C18.7171 10.122 18.1429 9.59902 18.1429 8.95122C18.1429 8.30341 18.7171 7.78049 19.4286 7.78049C20.14 7.78049 20.7143 8.30341 20.7143 8.95122C20.7143 9.59902 20.14 10.122 19.4286 10.122ZM20.7143 12.4634H19.8571C19.8571 11.9951 19.5357 11.5737 19.0557 11.4098L16.4157 10.5122H13V14.8049H15.5714V14.2429L18.5714 15L22 14.0244V13.6341C22 12.9863 21.4257 12.4634 20.7143 12.4634ZM14.7143 14.0244H13.8571V11.2927H14.7143V14.0244ZM18.5586 14.1844L15.5714 13.439V11.2927H16.2614L18.7557 12.1395C18.9014 12.1902 19 12.319 19 12.4634C19 12.4634 18.1429 12.4439 18.0143 12.4049L16.9943 12.0966L16.7243 12.838L17.7443 13.1463C17.9629 13.2127 18.19 13.2439 18.4214 13.2439H20.7143C20.8814 13.2439 21.0314 13.3376 21.1 13.4663L18.5586 14.1844Z" fill="#0A73B9"/>
<path d="M18 8.5C18 7.67157 18.6716 7.5 19.5 7.5C20.3284 7.5 21 7.67157 21 8.5V9.5C21 10.3284 20.3284 10.5 19.5 10.5C18.6716 10.5 18 10.3284 18 9.5V8.5Z" fill="#0A73B9"/>
</svg>
