<svg width="25" height="15" viewBox="0 0 25 15" fill="none" xmlns="http://www.w3.org/2000/svg">
<path d="M11.0832 10.2995C12.1158 9.63085 12.8997 8.65667 13.3191 7.52105C13.7385 6.38544 13.771 5.14869 13.4119 3.99369C13.0529 2.83869 12.3212 1.82676 11.3251 1.10754C10.329 0.388321 9.12147 0 7.88098 0C6.64048 0 5.43291 0.388321 4.43685 1.10754C3.44078 1.82676 2.7091 2.83869 2.35001 3.99369C1.99091 5.14869 2.02347 6.38544 2.44285 7.52105C2.86224 8.65667 3.6462 9.63085 4.6788 10.2995C2.81093 10.9692 1.21573 12.2084 0.13122 13.8322C0.0742217 13.9146 0.0346308 14.0072 0.0147483 14.1046C-0.00513416 14.202 -0.00491155 14.3023 0.0154032 14.3997C0.0357179 14.497 0.0757196 14.5894 0.133083 14.6716C0.190446 14.7538 0.264027 14.824 0.349548 14.8783C0.43507 14.9325 0.530825 14.9697 0.631249 14.9877C0.731673 15.0056 0.834763 15.004 0.934525 14.9828C1.03429 14.9617 1.12873 14.9214 1.21237 14.8645C1.29601 14.8075 1.36717 14.7349 1.42172 14.651C2.12128 13.6044 3.07853 12.7443 4.20655 12.1489C5.33456 11.5536 6.59761 11.2417 7.88098 11.2417C9.16435 11.2417 10.4274 11.5536 11.5554 12.1489C12.6834 12.7443 13.6407 13.6044 14.3402 14.651C14.4532 14.8143 14.6278 14.9279 14.8262 14.9671C15.0246 15.0062 15.2308 14.9679 15.4004 14.8603C15.5699 14.7527 15.6891 14.5846 15.7322 14.3922C15.7753 14.1998 15.7389 13.9987 15.6307 13.8322C14.5462 12.2084 12.951 10.9692 11.0832 10.2995ZM3.64351 5.62306C3.64351 4.80782 3.89203 4.01089 4.35765 3.33305C4.82327 2.65521 5.48507 2.12689 6.25937 1.81492C7.03366 1.50294 7.88568 1.42131 8.70767 1.58036C9.52966 1.7394 10.2847 2.13197 10.8773 2.70843C11.4699 3.28489 11.8735 4.01934 12.037 4.81891C12.2005 5.61848 12.1166 6.44726 11.7959 7.20044C11.4752 7.95362 10.932 8.59737 10.2352 9.05029C9.53834 9.50321 8.71907 9.74496 7.88098 9.74496C6.75752 9.74372 5.68044 9.30905 4.88604 8.53631C4.09164 7.76358 3.64478 6.71587 3.64351 5.62306ZM23.8813 14.8692C23.7101 14.9778 23.5017 15.0158 23.3018 14.9748C23.1018 14.9339 22.9268 14.8174 22.8152 14.651C22.1165 13.6037 21.1593 12.7433 20.0311 12.1482C18.9028 11.5531 17.6394 11.2422 16.3559 11.2438C16.1516 11.2438 15.9556 11.1649 15.8111 11.0243C15.6666 10.8838 15.5855 10.6932 15.5855 10.4944C15.5855 10.2956 15.6666 10.105 15.8111 9.96447C15.9556 9.82392 16.1516 9.74496 16.3559 9.74496C16.98 9.74439 17.5962 9.60975 18.1605 9.35068C18.7248 9.0916 19.2234 8.71448 19.6205 8.24625C20.0177 7.77802 20.3036 7.23026 20.4579 6.64208C20.6121 6.05391 20.631 5.43985 20.513 4.84378C20.395 4.24771 20.1431 3.68435 19.7754 3.19394C19.4076 2.70353 18.9331 2.29819 18.3856 2.00687C17.8381 1.71555 17.2312 1.54544 16.6084 1.50871C15.9855 1.47198 15.3619 1.56952 14.7823 1.79437C14.6878 1.83411 14.586 1.85502 14.4831 1.85587C14.3801 1.85672 14.278 1.83748 14.1828 1.7993C14.0877 1.76112 14.0013 1.70476 13.9289 1.63357C13.8565 1.56238 13.7995 1.47778 13.7612 1.38479C13.723 1.2918 13.7043 1.1923 13.7063 1.09217C13.7082 0.992032 13.7308 0.893295 13.7727 0.801791C13.8145 0.710287 13.8748 0.627872 13.95 0.559416C14.0251 0.49096 14.1136 0.437852 14.2102 0.403229C15.5368 -0.111399 17.0123 -0.129918 18.3521 0.351244C19.6919 0.832405 20.801 1.77915 21.4655 3.00885C22.1301 4.23854 22.3029 5.66405 21.9506 7.01038C21.5984 8.3567 20.7461 9.52843 19.5581 10.2995C21.426 10.9692 23.0212 12.2084 24.1057 13.8322C24.2173 13.9987 24.2563 14.2014 24.2142 14.3959C24.1722 14.5904 24.0524 14.7606 23.8813 14.8692Z" fill="#0A73B9"/>
<path d="M12.9447 5.76923C12.9447 8.31824 10.62 10.3846 7.7524 10.3846C4.88477 10.3846 2.5601 8.31824 2.5601 5.76923C2.5601 3.22022 4.88477 1.15385 7.7524 1.15385C10.62 1.15385 12.9447 3.22022 12.9447 5.76923Z" fill="#0A73B9"/>
</svg>
