<svg width="16" height="15" viewBox="0 0 16 15" fill="none" xmlns="http://www.w3.org/2000/svg">
<path d="M4.25291 2.39655L4.25446 2.37688V2.35714C4.25446 1.89578 4.37519 1.39953 4.59529 1.03547C4.81089 0.678856 5.08306 0.5 5.40625 0.5C5.86085 0.5 6.30597 0.825399 6.66765 1.44425C7.02229 2.05108 7.21875 2.82121 7.21875 3.42857C7.21875 3.88994 7.09803 4.38618 6.87792 4.75024C6.66232 5.10686 6.39016 5.28571 6.06696 5.28571C5.54341 5.28571 5.07427 4.94256 4.72298 4.34146C4.37296 3.74255 4.20625 2.98667 4.25291 2.39655ZM12.064 2.46429C12.064 3.01259 11.8704 3.75502 11.5151 4.35112C11.153 4.95854 10.7076 5.28571 10.2515 5.28571C9.9283 5.28571 9.65613 5.10686 9.44053 4.75024C9.22042 4.38618 9.0997 3.88994 9.0997 3.42857C9.0997 2.88027 9.29326 2.13784 9.6486 1.54173C10.0107 0.934318 10.4561 0.607143 10.9122 0.607143C11.2354 0.607143 11.5076 0.785999 11.7232 1.14261C11.9433 1.50668 12.064 2.00292 12.064 2.46429ZM12.2932 8.03571C12.2932 7.44203 12.5095 6.70553 12.8868 6.12524C13.2692 5.53713 13.7415 5.21429 14.2158 5.21429C14.4513 5.21429 14.6697 5.33733 14.8494 5.59958C15.033 5.8675 15.1473 6.24812 15.1473 6.64286C15.1473 7.23654 14.931 7.97304 14.5537 8.55333C14.1713 9.14144 13.699 9.46429 13.2247 9.46429C12.921 9.46429 12.7117 9.32895 12.5571 9.08996C12.3898 8.83156 12.2932 8.45197 12.2932 8.03571ZM2.2128 5.21429C2.62582 5.21429 3.10006 5.52879 3.50449 6.13133C3.89858 6.71847 4.13542 7.45342 4.13542 8.03571C4.13542 8.45197 4.03874 8.83156 3.87152 9.08996C3.71687 9.32895 3.50754 9.46429 3.20387 9.46429C2.79085 9.46429 2.3166 9.14978 1.91218 8.54724C1.51809 7.9601 1.28125 7.22515 1.28125 6.64286C1.28125 6.2266 1.37792 5.84702 1.54515 5.58861C1.6998 5.34962 1.90913 5.21429 2.2128 5.21429ZM3.48363 13.6071C3.48363 12.6044 4.13762 11.2725 5.12008 10.1616C5.60253 9.61606 6.14318 9.14874 6.68142 8.82105C7.22468 8.4903 7.73265 8.32143 8.15923 8.32143C8.5858 8.32143 9.09377 8.4903 9.63703 8.82105C10.1753 9.14874 10.7159 9.61606 11.1984 10.1616C12.1808 11.2725 12.8348 12.6044 12.8348 13.6071C12.8348 13.8305 12.7884 13.9758 12.7326 14.0731C12.6772 14.1695 12.5967 14.2465 12.4844 14.3095C12.2419 14.4456 11.881 14.5 11.4628 14.5C10.967 14.5 10.5021 14.3254 9.95508 14.1071C9.93262 14.0981 9.90996 14.089 9.88711 14.0799C9.38724 13.8798 8.79525 13.6429 8.15923 13.6429C7.47308 13.6429 6.85657 13.8774 6.32487 14.0798C6.30348 14.0879 6.28224 14.096 6.26113 14.104C5.68975 14.3209 5.1923 14.5 4.63542 14.5C4.24123 14.5 3.94934 14.4255 3.76798 14.2972C3.61739 14.1906 3.48363 14.0064 3.48363 13.6071Z" fill="#0A73B9" stroke="#0A73B9"/>
</svg>
