<svg width="17" height="15" viewBox="0 0 17 15" fill="none" xmlns="http://www.w3.org/2000/svg">
<path d="M0 15V13.3333C0.511539 13.3333 0.895192 13.1944 1.15096 12.9167C1.40673 12.6389 1.91154 12.5 2.66539 12.5C3.41923 12.5 3.9375 12.6389 4.22019 12.9167C4.50288 13.1944 4.88654 13.3333 5.37115 13.3333C5.85577 13.3333 6.23942 13.1944 6.52212 12.9167C6.80481 12.6389 7.32308 12.5 8.07692 12.5C8.83077 12.5 9.34904 12.6389 9.63173 12.9167C9.91442 13.1944 10.2981 13.3333 10.7827 13.3333C11.2673 13.3333 11.651 13.1944 11.9337 12.9167C12.2163 12.6389 12.7346 12.5 13.4885 12.5C14.2423 12.5 14.7471 12.6389 15.0029 12.9167C15.2587 13.1944 15.6423 13.3333 16.1538 13.3333V15C15.3596 15 14.8378 14.8611 14.5885 14.5833C14.3398 14.3056 13.9731 14.1667 13.4885 14.1667C13.0038 14.1667 12.6202 14.3056 12.3375 14.5833C12.0548 14.8611 11.5365 15 10.7827 15C10.0288 15 9.51058 14.8611 9.22789 14.5833C8.94519 14.3056 8.56154 14.1667 8.07692 14.1667C7.59231 14.1667 7.20865 14.3056 6.92596 14.5833C6.64327 14.8611 6.125 15 5.37115 15C4.61731 15 4.09904 14.8611 3.81635 14.5833C3.53365 14.3056 3.15 14.1667 2.66539 14.1667C2.18077 14.1667 1.81408 14.3056 1.56531 14.5833C1.316 14.8611 0.794231 15 0 15ZM0 11.25V9.58333C0.511539 9.58333 0.895192 9.44444 1.15096 9.16667C1.40673 8.88889 1.91154 8.75 2.66539 8.75C3.41923 8.75 3.941 8.88889 4.23069 9.16667C4.51985 9.44444 4.9 9.58333 5.37115 9.58333C5.85577 9.58333 6.23942 9.44444 6.52212 9.16667C6.80481 8.88889 7.32308 8.75 8.07692 8.75C8.83077 8.75 9.34904 8.88889 9.63173 9.16667C9.91442 9.44444 10.2981 9.58333 10.7827 9.58333C11.2673 9.58333 11.651 9.44444 11.9337 9.16667C12.2163 8.88889 12.7346 8.75 13.4885 8.75C14.2423 8.75 14.7471 8.88889 15.0029 9.16667C15.2587 9.44444 15.6423 9.58333 16.1538 9.58333V11.25C15.3596 11.25 14.8378 11.1111 14.5885 10.8333C14.3398 10.5556 13.9731 10.4167 13.4885 10.4167C13.0038 10.4167 12.6302 10.5556 12.3674 10.8333C12.1052 11.1111 11.5769 11.25 10.7827 11.25C10.0154 11.25 9.49389 11.1111 9.21819 10.8333C8.94196 10.5556 8.56154 10.4167 8.07692 10.4167C7.56538 10.4167 7.18523 10.5556 6.93646 10.8333C6.68715 11.1111 6.16538 11.25 5.37115 11.25C4.57692 11.25 4.04869 11.1111 3.78646 10.8333C3.52369 10.5556 3.15 10.4167 2.66539 10.4167C2.18077 10.4167 1.81408 10.5556 1.56531 10.8333C1.316 11.1111 0.794231 11.25 0 11.25ZM3.95769 7L6.64327 4.22917L5.83558 3.39583C5.39135 2.9375 4.92019 2.60417 4.42212 2.39583C3.92404 2.1875 3.31154 2.08333 2.58462 2.08333V0C3.59423 0 4.42885 0.114444 5.08846 0.343333C5.74808 0.572778 6.39423 1.01389 7.02692 1.66667L12.1962 7C11.9673 7.15278 11.7452 7.27417 11.5298 7.36417C11.3144 7.45472 11.0654 7.5 10.7827 7.5C10.2981 7.5 9.91442 7.36111 9.63173 7.08333C9.34904 6.80556 8.83077 6.66667 8.07692 6.66667C7.32308 6.66667 6.80481 6.80556 6.52212 7.08333C6.23942 7.36111 5.85577 7.5 5.37115 7.5C5.08846 7.5 4.83942 7.45472 4.62404 7.36417C4.40865 7.27417 4.18654 7.15278 3.95769 7ZM11.8731 0C12.4385 0 12.9163 0.204722 13.3067 0.614167C13.6971 1.02417 13.8923 1.51389 13.8923 2.08333C13.8923 2.66667 13.6971 3.15972 13.3067 3.5625C12.9163 3.96528 12.4385 4.16667 11.8731 4.16667C11.3077 4.16667 10.8298 3.96528 10.4394 3.5625C10.049 3.15972 9.85385 2.66667 9.85385 2.08333C9.85385 1.51389 10.049 1.02417 10.4394 0.614167C10.8298 0.204722 11.3077 0 11.8731 0Z" fill="#0A73B9"/>
</svg>
