<svg width="14" height="13" viewBox="0 0 14 13" fill="none" xmlns="http://www.w3.org/2000/svg">
<path d="M12.9231 0H1.07692C0.791305 0 0.517386 0.136964 0.315423 0.380761C0.113461 0.624558 0 0.955218 0 1.3V11.7C0 12.0448 0.113461 12.3754 0.315423 12.6192C0.517386 12.863 0.791305 13 1.07692 13H12.9231C13.2087 13 13.4826 12.863 13.6846 12.6192C13.8865 12.3754 14 12.0448 14 11.7V1.3C14 0.955218 13.8865 0.624558 13.6846 0.380761C13.4826 0.136964 13.2087 0 12.9231 0ZM1.07692 1.3H12.9231V5.85H8.07692C7.79131 5.85 7.51739 5.98696 7.31542 6.23076C7.11346 6.47456 7 6.80522 7 7.15V11.7H1.07692V1.3ZM12.9231 11.7H8.07692V7.15H12.9231V11.7Z" fill="#0A73B9"/>
<path d="M8 7H13V12H8V7Z" fill="#0A73B9"/>
</svg>
