<svg width="22" height="15" viewBox="0 0 22 15" fill="none" xmlns="http://www.w3.org/2000/svg">
<mask id="path-1-inside-1_693_23741" fill="white">
<path d="M2.77629 8.26673V2.65567C2.77571 2.44436 2.81705 2.23504 2.89792 2.03982C2.97879 1.84459 3.09757 1.66735 3.2474 1.51834L3.25987 1.50587C3.49468 1.27141 3.79616 1.11515 4.12311 1.05846C4.45006 1.00176 4.78654 1.04738 5.08658 1.1891C4.80322 1.66024 4.68543 2.21257 4.75196 2.75832C4.81848 3.30407 5.06549 3.81193 5.45373 4.20121L5.7951 4.54258L5.16676 5.17095L5.87207 5.87626L10.6104 1.13801L9.90505 0.432666L9.27667 1.06101L8.9353 0.71964C8.52659 0.312068 7.98782 0.0608265 7.41289 0.00969561C6.83796 -0.0414353 6.26331 0.110787 5.78909 0.439835C5.28902 0.12403 4.69642 -0.0123048 4.10862 0.0532261C3.52083 0.118757 2.9728 0.382257 2.55456 0.800439L2.54209 0.812908C2.29933 1.05434 2.10687 1.34152 1.97585 1.65783C1.84482 1.97414 1.77784 2.3133 1.77877 2.65567V8.26673H0.78125V9.26425H1.77877V10.2212C1.77875 10.3017 1.79172 10.3815 1.81718 10.4578L2.74512 13.2415C2.79464 13.3906 2.88986 13.5202 3.01726 13.612C3.14465 13.7039 3.29775 13.7532 3.45479 13.7531H3.85692L3.49326 15H4.53234L4.89603 13.7531H11.383L11.7571 15H12.7983L12.4242 13.7531H13.0704C13.2275 13.7533 13.3806 13.7039 13.508 13.6121C13.6354 13.5202 13.7307 13.3906 13.7802 13.2415L14.7081 10.4578C14.7335 10.3815 14.7465 10.3017 14.7465 10.2212V9.26425H15.7441V8.26673H2.77629ZM6.15914 1.42498C6.43395 1.15076 6.80632 0.996759 7.19455 0.996759C7.58277 0.996759 7.95515 1.15076 8.22996 1.42498L8.57127 1.76635L6.50051 3.83711L6.15914 3.4958C5.88493 3.22098 5.73094 2.84861 5.73094 2.46039C5.73094 2.07217 5.88493 1.6998 6.15914 1.42498ZM13.749 10.1807L12.8908 12.7556H3.63454L2.77629 10.1807V9.26425H13.749V10.1807Z"/>
<path d="M11.5313 5.85182H20.0312C20.0975 5.85182 20.1611 5.82646 20.208 5.78131C20.2549 5.73617 20.2812 5.67493 20.2812 5.61109V2.96296C20.2812 2.70756 20.1759 2.46263 19.9883 2.28204C19.8008 2.10145 19.5465 2 19.2812 2H12.2813C12.016 2 11.7617 2.10145 11.5742 2.28204C11.3866 2.46263 11.2813 2.70756 11.2813 2.96296V5.61109C11.2813 5.67493 11.3076 5.73617 11.3545 5.78131C11.4014 5.82646 11.465 5.85182 11.5313 5.85182ZM13.2813 3.44443H14.2644C14.3936 3.4426 14.5187 3.48794 14.6146 3.57135C14.7105 3.65476 14.7701 3.77005 14.7813 3.89401C14.7858 3.95987 14.7762 4.02593 14.7531 4.08808C14.7301 4.15023 14.6939 4.20714 14.6471 4.25528C14.6002 4.30343 14.5435 4.34177 14.4806 4.36794C14.4176 4.39411 14.3498 4.40754 14.2813 4.40739H13.2981C13.1689 4.40923 13.0438 4.36388 12.9479 4.28047C12.852 4.19706 12.7925 4.08178 12.7813 3.95781C12.7767 3.89195 12.7863 3.8259 12.8094 3.76375C12.8325 3.7016 12.8686 3.64468 12.9155 3.59654C12.9623 3.5484 13.019 3.51005 13.0819 3.48388C13.1449 3.45772 13.2127 3.44429 13.2813 3.44443ZM21.7812 7.29987C21.7817 7.23634 21.7692 7.17334 21.7443 7.11451C21.7194 7.05567 21.6826 7.00217 21.6361 6.95708C21.5896 6.91198 21.5344 6.8762 21.4734 6.85177C21.4125 6.82735 21.3472 6.81478 21.2812 6.81478H10.2813C10.2153 6.81478 10.15 6.82735 10.0891 6.85177C10.0281 6.8762 9.97286 6.91198 9.92638 6.95708C9.8799 7.00217 9.84315 7.05567 9.81824 7.11451C9.79334 7.17334 9.78077 7.23634 9.78126 7.29987C9.78284 8.35601 10.0847 9.39158 10.6541 10.2942C11.2235 11.1969 12.0387 11.9322 13.0113 12.4204L12.7944 13.8811C12.7617 14.087 12.7973 14.2977 12.8963 14.4829C12.9808 14.6386 13.1079 14.7691 13.2639 14.8603C13.4199 14.9514 13.5988 14.9997 13.7813 14.9999H17.76C17.9772 15.0028 18.1898 14.9396 18.3675 14.8194C18.5151 14.7165 18.6308 14.5767 18.7019 14.4152C18.7731 14.2536 18.7971 14.0764 18.7712 13.9027L18.5512 12.4222C19.5241 11.9339 20.3395 11.1983 20.9089 10.2953C21.4783 9.39227 21.78 8.35632 21.7812 7.29987ZM13.7813 14.037L13.9644 12.8032C15.1466 13.1643 16.4159 13.1643 17.5981 12.8032L17.7812 14.037H13.7813Z"/>
</mask>
<path d="M2.77629 8.26673V2.65567C2.77571 2.44436 2.81705 2.23504 2.89792 2.03982C2.97879 1.84459 3.09757 1.66735 3.2474 1.51834L3.25987 1.50587C3.49468 1.27141 3.79616 1.11515 4.12311 1.05846C4.45006 1.00176 4.78654 1.04738 5.08658 1.1891C4.80322 1.66024 4.68543 2.21257 4.75196 2.75832C4.81848 3.30407 5.06549 3.81193 5.45373 4.20121L5.7951 4.54258L5.16676 5.17095L5.87207 5.87626L10.6104 1.13801L9.90505 0.432666L9.27667 1.06101L8.9353 0.71964C8.52659 0.312068 7.98782 0.0608265 7.41289 0.00969561C6.83796 -0.0414353 6.26331 0.110787 5.78909 0.439835C5.28902 0.12403 4.69642 -0.0123048 4.10862 0.0532261C3.52083 0.118757 2.9728 0.382257 2.55456 0.800439L2.54209 0.812908C2.29933 1.05434 2.10687 1.34152 1.97585 1.65783C1.84482 1.97414 1.77784 2.3133 1.77877 2.65567V8.26673H0.78125V9.26425H1.77877V10.2212C1.77875 10.3017 1.79172 10.3815 1.81718 10.4578L2.74512 13.2415C2.79464 13.3906 2.88986 13.5202 3.01726 13.612C3.14465 13.7039 3.29775 13.7532 3.45479 13.7531H3.85692L3.49326 15H4.53234L4.89603 13.7531H11.383L11.7571 15H12.7983L12.4242 13.7531H13.0704C13.2275 13.7533 13.3806 13.7039 13.508 13.6121C13.6354 13.5202 13.7307 13.3906 13.7802 13.2415L14.7081 10.4578C14.7335 10.3815 14.7465 10.3017 14.7465 10.2212V9.26425H15.7441V8.26673H2.77629ZM6.15914 1.42498C6.43395 1.15076 6.80632 0.996759 7.19455 0.996759C7.58277 0.996759 7.95515 1.15076 8.22996 1.42498L8.57127 1.76635L6.50051 3.83711L6.15914 3.4958C5.88493 3.22098 5.73094 2.84861 5.73094 2.46039C5.73094 2.07217 5.88493 1.6998 6.15914 1.42498ZM13.749 10.1807L12.8908 12.7556H3.63454L2.77629 10.1807V9.26425H13.749V10.1807Z" fill="#0A73B9"/>
<path d="M11.5313 5.85182H20.0312C20.0975 5.85182 20.1611 5.82646 20.208 5.78131C20.2549 5.73617 20.2812 5.67493 20.2812 5.61109V2.96296C20.2812 2.70756 20.1759 2.46263 19.9883 2.28204C19.8008 2.10145 19.5465 2 19.2812 2H12.2813C12.016 2 11.7617 2.10145 11.5742 2.28204C11.3866 2.46263 11.2813 2.70756 11.2813 2.96296V5.61109C11.2813 5.67493 11.3076 5.73617 11.3545 5.78131C11.4014 5.82646 11.465 5.85182 11.5313 5.85182ZM13.2813 3.44443H14.2644C14.3936 3.4426 14.5187 3.48794 14.6146 3.57135C14.7105 3.65476 14.7701 3.77005 14.7813 3.89401C14.7858 3.95987 14.7762 4.02593 14.7531 4.08808C14.7301 4.15023 14.6939 4.20714 14.6471 4.25528C14.6002 4.30343 14.5435 4.34177 14.4806 4.36794C14.4176 4.39411 14.3498 4.40754 14.2813 4.40739H13.2981C13.1689 4.40923 13.0438 4.36388 12.9479 4.28047C12.852 4.19706 12.7925 4.08178 12.7813 3.95781C12.7767 3.89195 12.7863 3.8259 12.8094 3.76375C12.8325 3.7016 12.8686 3.64468 12.9155 3.59654C12.9623 3.5484 13.019 3.51005 13.0819 3.48388C13.1449 3.45772 13.2127 3.44429 13.2813 3.44443ZM21.7812 7.29987C21.7817 7.23634 21.7692 7.17334 21.7443 7.11451C21.7194 7.05567 21.6826 7.00217 21.6361 6.95708C21.5896 6.91198 21.5344 6.8762 21.4734 6.85177C21.4125 6.82735 21.3472 6.81478 21.2812 6.81478H10.2813C10.2153 6.81478 10.15 6.82735 10.0891 6.85177C10.0281 6.8762 9.97286 6.91198 9.92638 6.95708C9.8799 7.00217 9.84315 7.05567 9.81824 7.11451C9.79334 7.17334 9.78077 7.23634 9.78126 7.29987C9.78284 8.35601 10.0847 9.39158 10.6541 10.2942C11.2235 11.1969 12.0387 11.9322 13.0113 12.4204L12.7944 13.8811C12.7617 14.087 12.7973 14.2977 12.8963 14.4829C12.9808 14.6386 13.1079 14.7691 13.2639 14.8603C13.4199 14.9514 13.5988 14.9997 13.7813 14.9999H17.76C17.9772 15.0028 18.1898 14.9396 18.3675 14.8194C18.5151 14.7165 18.6308 14.5767 18.7019 14.4152C18.7731 14.2536 18.7971 14.0764 18.7712 13.9027L18.5512 12.4222C19.5241 11.9339 20.3395 11.1983 20.9089 10.2953C21.4783 9.39227 21.78 8.35632 21.7812 7.29987ZM13.7813 14.037L13.9644 12.8032C15.1466 13.1643 16.4159 13.1643 17.5981 12.8032L17.7812 14.037H13.7813Z" fill="#FBFBFB"/>
<path d="M2.77629 8.26673V2.65567C2.77571 2.44436 2.81705 2.23504 2.89792 2.03982C2.97879 1.84459 3.09757 1.66735 3.2474 1.51834L3.25987 1.50587C3.49468 1.27141 3.79616 1.11515 4.12311 1.05846C4.45006 1.00176 4.78654 1.04738 5.08658 1.1891C4.80322 1.66024 4.68543 2.21257 4.75196 2.75832C4.81848 3.30407 5.06549 3.81193 5.45373 4.20121L5.7951 4.54258L5.16676 5.17095L5.87207 5.87626L10.6104 1.13801L9.90505 0.432666L9.27667 1.06101L8.9353 0.71964C8.52659 0.312068 7.98782 0.0608265 7.41289 0.00969561C6.83796 -0.0414353 6.26331 0.110787 5.78909 0.439835C5.28902 0.12403 4.69642 -0.0123048 4.10862 0.0532261C3.52083 0.118757 2.9728 0.382257 2.55456 0.800439L2.54209 0.812908C2.29933 1.05434 2.10687 1.34152 1.97585 1.65783C1.84482 1.97414 1.77784 2.3133 1.77877 2.65567V8.26673H0.78125V9.26425H1.77877V10.2212C1.77875 10.3017 1.79172 10.3815 1.81718 10.4578L2.74512 13.2415C2.79464 13.3906 2.88986 13.5202 3.01726 13.612C3.14465 13.7039 3.29775 13.7532 3.45479 13.7531H3.85692L3.49326 15H4.53234L4.89603 13.7531H11.383L11.7571 15H12.7983L12.4242 13.7531H13.0704C13.2275 13.7533 13.3806 13.7039 13.508 13.6121C13.6354 13.5202 13.7307 13.3906 13.7802 13.2415L14.7081 10.4578C14.7335 10.3815 14.7465 10.3017 14.7465 10.2212V9.26425H15.7441V8.26673H2.77629ZM6.15914 1.42498C6.43395 1.15076 6.80632 0.996759 7.19455 0.996759C7.58277 0.996759 7.95515 1.15076 8.22996 1.42498L8.57127 1.76635L6.50051 3.83711L6.15914 3.4958C5.88493 3.22098 5.73094 2.84861 5.73094 2.46039C5.73094 2.07217 5.88493 1.6998 6.15914 1.42498ZM13.749 10.1807L12.8908 12.7556H3.63454L2.77629 10.1807V9.26425H13.749V10.1807Z" stroke="#0A73B9" stroke-width="12" mask="url(#path-1-inside-1_693_23741)"/>
<path d="M11.5313 5.85182H20.0312C20.0975 5.85182 20.1611 5.82646 20.208 5.78131C20.2549 5.73617 20.2812 5.67493 20.2812 5.61109V2.96296C20.2812 2.70756 20.1759 2.46263 19.9883 2.28204C19.8008 2.10145 19.5465 2 19.2812 2H12.2813C12.016 2 11.7617 2.10145 11.5742 2.28204C11.3866 2.46263 11.2813 2.70756 11.2813 2.96296V5.61109C11.2813 5.67493 11.3076 5.73617 11.3545 5.78131C11.4014 5.82646 11.465 5.85182 11.5313 5.85182ZM13.2813 3.44443H14.2644C14.3936 3.4426 14.5187 3.48794 14.6146 3.57135C14.7105 3.65476 14.7701 3.77005 14.7813 3.89401C14.7858 3.95987 14.7762 4.02593 14.7531 4.08808C14.7301 4.15023 14.6939 4.20714 14.6471 4.25528C14.6002 4.30343 14.5435 4.34177 14.4806 4.36794C14.4176 4.39411 14.3498 4.40754 14.2813 4.40739H13.2981C13.1689 4.40923 13.0438 4.36388 12.9479 4.28047C12.852 4.19706 12.7925 4.08178 12.7813 3.95781C12.7767 3.89195 12.7863 3.8259 12.8094 3.76375C12.8325 3.7016 12.8686 3.64468 12.9155 3.59654C12.9623 3.5484 13.019 3.51005 13.0819 3.48388C13.1449 3.45772 13.2127 3.44429 13.2813 3.44443ZM21.7812 7.29987C21.7817 7.23634 21.7692 7.17334 21.7443 7.11451C21.7194 7.05567 21.6826 7.00217 21.6361 6.95708C21.5896 6.91198 21.5344 6.8762 21.4734 6.85177C21.4125 6.82735 21.3472 6.81478 21.2812 6.81478H10.2813C10.2153 6.81478 10.15 6.82735 10.0891 6.85177C10.0281 6.8762 9.97286 6.91198 9.92638 6.95708C9.8799 7.00217 9.84315 7.05567 9.81824 7.11451C9.79334 7.17334 9.78077 7.23634 9.78126 7.29987C9.78284 8.35601 10.0847 9.39158 10.6541 10.2942C11.2235 11.1969 12.0387 11.9322 13.0113 12.4204L12.7944 13.8811C12.7617 14.087 12.7973 14.2977 12.8963 14.4829C12.9808 14.6386 13.1079 14.7691 13.2639 14.8603C13.4199 14.9514 13.5988 14.9997 13.7813 14.9999H17.76C17.9772 15.0028 18.1898 14.9396 18.3675 14.8194C18.5151 14.7165 18.6308 14.5767 18.7019 14.4152C18.7731 14.2536 18.7971 14.0764 18.7712 13.9027L18.5512 12.4222C19.5241 11.9339 20.3395 11.1983 20.9089 10.2953C21.4783 9.39227 21.78 8.35632 21.7812 7.29987ZM13.7813 14.037L13.9644 12.8032C15.1466 13.1643 16.4159 13.1643 17.5981 12.8032L17.7812 14.037H13.7813Z" stroke="#0A73B9" stroke-width="12" mask="url(#path-1-inside-1_693_23741)"/>
</svg>
